<?xml version="1.0" encoding="UTF-8"?>
<svg id="Layer_1" data-name="Layer 1" xmlns="http://www.w3.org/2000/svg" viewBox="0 0 150 150">
  <defs>
    <style>
      .cls-1 {
        fill: #08405a;
      }

      .cls-2 {
        fill: #084059;
      }
    </style>
  </defs>
  <path class="cls-2" d="M75,8.78l57.35,33.11v66.22l-57.35,33.11-57.35-33.11V41.89L75,8.78M75,5.32L14.65,40.16v69.68l60.35,34.84,60.35-34.84V40.16L75,5.32h0Z"/>
  <g>
    <path class="cls-1" d="M48.43,70.65v-7.17h-7.63v7.17h-4.41v-18.39h4.41v7.26h7.63v-7.26h4.41v18.39h-4.41Z"/>
    <path class="cls-1" d="M55.96,70.65v-18.39h4.41v18.39h-4.41Z"/>
    <path class="cls-1" d="M67.86,65.25v5.4h-4.41v-18.39h7.66c4.87,0,7.2,2.24,7.2,6.56,0,3.59-2.51,6.44-7.05,6.44h-3.4ZM67.86,55.99v5.67h2.91c2.27,0,3.19-.92,3.19-2.85s-.86-2.82-3.25-2.82h-2.85Z"/>
    <path class="cls-1" d="M90.16,66.57h-7.11l-1.26,4.08h-4.57l6.44-18.39h6.07l6.41,18.39h-4.72l-1.26-4.08ZM84.06,63.35h5.09l-.71-2.27c-.52-1.66-1.01-3.37-1.44-5.03h-.74c-.46,1.66-.98,3.37-1.5,5.03l-.71,2.27Z"/>
    <path class="cls-1" d="M109.5,66.57h-7.11l-1.26,4.08h-4.57l6.44-18.39h6.07l6.41,18.39h-4.72l-1.26-4.08ZM103.4,63.35h5.09l-.71-2.27c-.52-1.66-1.01-3.37-1.44-5.03h-.74c-.46,1.66-.98,3.37-1.5,5.03l-.71,2.27Z"/>
    <path class="cls-1" d="M39.46,90.78h-2.79v6.35h-4.44v-18.39h8.06c4.72,0,7.14,1.99,7.14,5.98,0,2.82-1.32,4.66-3.65,5.52l4.72,6.56v.34h-5.15l-3.89-6.35ZM36.67,82.44v4.9h3.31c2.15,0,3.07-.77,3.07-2.48s-.86-2.42-3.07-2.42h-3.31Z"/>
    <path class="cls-1" d="M50.2,78.73h13.92v3.83h-9.47v3.56h8.71v3.43h-8.71v3.74h9.44v3.83h-13.89v-18.39Z"/>
    <path class="cls-1" d="M78.19,93.05h-7.11l-1.26,4.08h-4.57l6.44-18.39h6.07l6.41,18.39h-4.72l-1.26-4.08ZM72.09,89.83h5.09l-.71-2.27c-.52-1.66-1.01-3.37-1.44-5.03h-.74c-.46,1.66-.98,3.37-1.5,5.03l-.71,2.27Z"/>
    <path class="cls-1" d="M85.48,78.73h7.85c6.47,0,9.32,3.22,9.32,8.98s-3.49,9.41-9.38,9.41h-7.79v-18.39ZM89.89,82.38v11.13h3.03c3.83,0,5.3-1.93,5.3-5.79s-1.56-5.33-5.46-5.33h-2.88Z"/>
    <path class="cls-1" d="M108.73,97.13v-5.82l-6.65-12.23v-.34h4.87l3.71,8.8h.52l3.83-8.8h4.75v.34l-6.62,12.2v5.86h-4.41Z"/>
  </g>
</svg>
