<?xml version="1.0" encoding="UTF-8"?>
<svg id="Layer_1" data-name="Layer 1" xmlns="http://www.w3.org/2000/svg" viewBox="0 0 150 150">
  <defs>
    <style>
      .cls-1 {
        fill: none;
        stroke: #084059;
        stroke-miterlimit: 10;
        stroke-width: 3px;
      }

      .cls-2 {
        fill: #08405a;
      }

      .cls-3 {
        fill: #084059;
      }
    </style>
  </defs>
  <path class="cls-3" d="M75,11.2c35.18,0,63.8,28.62,63.8,63.8s-28.62,63.8-63.8,63.8S11.2,110.18,11.2,75,39.82,11.2,75,11.2M75,8.2C38.11,8.2,8.2,38.1,8.2,75s29.91,66.8,66.8,66.8,66.8-29.91,66.8-66.8S111.89,8.2,75,8.2h0Z"/>
  <line class="cls-1" x1="8.2" y1="75" x2="141.8" y2="75"/>
  <g>
    <path class="cls-2" d="M37.48,58.28l4.03-.85c.41,2.12,1.91,3.09,4.08,3.09,1.97,0,2.94-.65,2.94-1.76,0-1.23-.79-1.88-4.14-2.44-4.88-.76-6.38-2.67-6.38-5.58,0-3.32,2.32-5.29,7.14-5.29s6.73,2.15,7.23,5.17l-4.2.82c-.41-1.79-1.12-2.7-3.23-2.7-1.88,0-2.76.65-2.76,1.76,0,1.03.5,1.76,3.97,2.38,5.47.97,6.64,3.03,6.64,5.58,0,3.38-2.2,5.44-7.38,5.44-5.64-.03-7.55-2.56-7.94-5.61Z"/>
    <path class="cls-2" d="M54.07,54.61c0-5.67,3.41-9.17,8.9-9.17s8.9,3.5,8.9,9.17-3.17,9.29-8.9,9.29-8.9-3.58-8.9-9.29ZM67.68,54.61c0-3.29-1.38-5.47-4.7-5.47s-4.67,2.17-4.67,5.47c0,3.47,1.38,5.64,4.67,5.64s4.7-2.17,4.7-5.64Z"/>
    <path class="cls-2" d="M73.27,54.61c0-5.79,3.38-9.17,8.73-9.17,4.64,0,7.44,2.47,7.96,6.85l-4.03.79c-.47-2.59-1.62-3.94-4.06-3.94-3.12,0-4.41,2.38-4.41,5.47,0,3.5,1.32,5.64,4.38,5.64,2.59,0,3.64-1.38,4.17-4l4,.68c-.53,4.41-3.44,6.96-8.14,6.96-5.47,0-8.61-3.47-8.61-9.29Z"/>
    <path class="cls-2" d="M101.52,52.79l-3.97-.47c.44-4.17,2.59-6.85,7.58-6.85,4.5,0,6.96,1.85,6.96,5.85,0,3.44-2.85,5.14-7.14,6-3.14.74-4.17,1.32-4.35,2.91,1.62-.18,3.73-.32,5.08-.32h6.47v3.58h-15.11c-.06-.71-.06-1.38-.06-2.15,0-4.03,1.79-5.67,5.91-6.73,4.29-1.12,5.05-1.88,5.05-3.44,0-1.32-.85-2.23-2.85-2.23-2.23,0-3.32,1.32-3.59,3.85Z"/>
    <path class="cls-2" d="M33.48,87.27h14.4v3.88h-5.08v13.75h-4.23v-13.75h-5.08v-3.88Z"/>
    <path class="cls-2" d="M54.9,104.9v-5.58l-6.38-11.73v-.32h4.67l3.56,8.43h.5l3.67-8.43h4.56v.32l-6.35,11.7v5.61h-4.23Z"/>
    <path class="cls-2" d="M70.89,99.73v5.17h-4.23v-17.63h7.35c4.67,0,6.91,2.15,6.91,6.29,0,3.44-2.41,6.17-6.76,6.17h-3.26ZM70.89,90.85v5.44h2.79c2.17,0,3.06-.88,3.06-2.73s-.82-2.7-3.12-2.7h-2.73Z"/>
    <path class="cls-2" d="M82.54,87.27h13.34v3.67h-9.08v3.41h8.35v3.29h-8.35v3.58h9.05v3.67h-13.31v-17.63Z"/>
    <path class="cls-2" d="M103.99,104.9v-17.63h4.23v17.63h-4.23Z"/>
    <path class="cls-2" d="M111.17,104.9v-17.63h4.23v17.63h-4.23Z"/>
  </g>
</svg>
